<svg xmlns="http://www.w3.org/2000/svg" xmlns:xlink="http://www.w3.org/1999/xlink" width="1919.905" height="1089.947" viewBox="0 0 1919.905 1089.947">
  <defs>
    <clipPath id="clip-path">
      <rect width="1919.905" height="1089.947" fill="none"/>
    </clipPath>
    <clipPath id="clip-path-2">
      <rect width="2234.905" height="1127.947" fill="none"/>
    </clipPath>
    <clipPath id="clip-path-3">
      <rect width="2074.758" height="1099.356" fill="none"/>
    </clipPath>
  </defs>
  <g id="Group_1" data-name="Group 1" transform="translate(-7 -2093)">
    <g id="Repeat_Grid_1" data-name="Repeat Grid 1" transform="translate(7 2093)" clip-path="url(#clip-path)">
      <g transform="translate(-7 -2093)">
        <g id="Component_12_2" data-name="Component 12 – 2" transform="translate(7 2093)" clip-path="url(#clip-path-2)">
          <g id="duotone_3_" data-name="duotone (3)" clip-path="url(#clip-path-3)">
            <path id="duotone_3_2" data-name="duotone (3)" d="M0,0H2074.757V1099.356H0Z" fill="#093162"/>
          </g>
          <path id="Path_47" data-name="Path 47" d="M581.333,1112.186S771.839,699.627,1029.09,840.931s50.353-501,345.958-405.072S1486.648-.173,1781.4-16.332c73.687-4.04,14.354-8.4,50.605,0,108.99,25.262,105.333,120.518,105.333,120.518l37.9,975.023-152.571,32.977Z" transform="translate(243 20.147)" fill="#6bc1ff"/>
          <path id="Path_48" data-name="Path 48" d="M1049.185,684.244s109.208,21.42,148.163-74.718,129.85-176.253,270.087-144.207,160.116-6.995,246.581-120.2,231.132-251.027,342.8-133.525S1989.3,713.644,1989.3,713.644Z" transform="translate(9 429.356)" fill="#fff"/>
        </g>
      </g>
    </g>
  </g>
</svg>
